<svg xmlns="http://www.w3.org/2000/svg" viewBox="0 0 200 240">
  <g stroke="#3a3226" stroke-width="5" stroke-linecap="round" stroke-linejoin="round" fill="none">
    <path d="M100 20 C 131 17, 151 44, 148 70 C 146 96, 121 109, 98 107 C 71 105, 51 88, 54 61 C 57 35, 74 22, 100 20 Z" fill="#588b8b" fill-opacity="0.35"/>
    <circle cx="85" cy="58" r="4.5" fill="#3a3226" stroke="none"/>
    <circle cx="118" cy="58" r="4.5" fill="#3a3226" stroke="none"/>
    <path d="M84 80 Q 101 93 118 78"/>
    <path d="M100 107 C 98 130, 102 150, 99 168"/>
    <path d="M84 121 L 116 117"/>
    <path d="M86 135 L 114 133"/>
    <path d="M88 149 L 112 148"/>
    <path d="M99 122 C 80 129, 70 141, 62 134"/>
    <path d="M101 122 C 122 127, 132 139, 140 130"/>
    <path d="M99 168 C 88 186, 78 201, 70 218"/>
    <path d="M99 168 C 112 183, 122 199, 132 215"/>
    <path d="M140 130 l 0 -28"/><path d="M140 102 l 22 7 l -22 7 Z" fill="#588b8b" fill-opacity="0.7"/>
    <text x="12" y="30" font-size="22" fill="#3a3226" stroke="none" font-family="sans-serif">9</text>
  </g>
</svg>
